# xmcd
#
# Track frame offsets: 
#        182
#        11380
#        25420
#        39415
#        51487
#        64842
#        78885
#        92040
#        105802
#        117340
#        127905
#        140822
#        156095
#        167855
#        179607
#        191747
#        204862
#        215460
#        228095
#        245817
#        261255
#        284282
#        298252
#        311970
#
# Disc length: 4475 seconds
#
# Revision: 2
# Processed by: cddbd v1.5.2PL0 Copyright (c) Steve Scherf et al.
# Submitted via: ExactAudioCopyFreeDBPlugin 1.0
#
DISCID=61117918
DTITLE=Ray Charles - Ray Charles:  Genius and Soul - The 50th Anniversar
DTITLE=y Collection [Rhino box set]
DYEAR=1997
DGENRE=Rhythm and Blues
TTITLE0=Confession Blues (The Maxin Trio)
TTITLE1=Baby Let Me Hold Your Hand (The Ray Charles Trio)
TTITLE2=Kissa Me Baby
TTITLE3=It Should've Been Me
TTITLE4=Don't You Know
TTITLE5=Come Back Baby
TTITLE6=I Got a Woman
TTITLE7=A Fool for You
TTITLE8=This Little Girl of Mine
TTITLE9=BlackJack
TTITLE10=Greenbacks
TTITLE11=Drown in My Own Tears
TTITLE12=Hallelujah, I Love Her So
TTITLE13=Lonely Avenue
TTITLE14=Leave My Woman Alone
TTITLE15=Ain't That Love
TTITLE16=Swanee River Rock (Talkin' 'Bout That River)
TTITLE17=My Bonnie
TTITLE18=Rock House, Parts 1 and 2
TTITLE19=(Night Time Is) The Right Time
TTITLE20=What'd I Say, Parts 1 and 2
TTITLE21=Tell the Truth
TTITLE22=I Believe to My Soul
TTITLE23=Don't Let the Sun Catch You Cryin'
EXTD=Rhino R2 72859-1
EXTT0=
EXTT1=
EXTT2=
EXTT3=
EXTT4=
EXTT5=
EXTT6=
EXTT7=
EXTT8=
EXTT9=
EXTT10=
EXTT11=
EXTT12=
EXTT13=
EXTT14=
EXTT15=
EXTT16=
EXTT17=
EXTT18=
EXTT19=
EXTT20=
EXTT21=
EXTT22=
EXTT23=
PLAYORDER=
